<svg width="210" height="108" viewBox="0 0 210 108" fill="none" xmlns="http://www.w3.org/2000/svg">
<path d="M99.1931 24.245C105.725 24.245 111.021 27.9061 111.021 32.4198C111.021 36.9335 105.725 40.5946 99.1931 40.5946C92.6615 40.5946 87.3641 36.9335 87.3641 32.4198C87.3641 27.9061 92.6615 24.245 99.1931 24.245Z" fill="#EE3D34"/>
<path d="M93.1547 22.0898C93.3427 21.889 93.7502 22.0369 93.4264 22.4135L91.3441 24.8432C91.0687 25.1498 90.9347 25.5582 90.9748 25.9687C89.8728 26.6653 88.9484 27.4988 88.2575 28.4308C87.8338 27.8335 87.7032 27.1604 87.9476 26.3909C88.2384 25.52 89.0101 25.1706 89.8515 24.8947C90.4154 24.7115 90.9403 24.4563 91.4469 23.9156L93.1547 22.0898Z" fill="#D8BD82"/>
<path d="M88.6094 22.9912C88.9186 22.7072 89.1865 22.9529 88.9171 23.2788C88.2343 24.1056 87.4501 24.8493 86.8033 25.7041C86.2497 26.436 86.3312 27.0201 87.1726 27.6167C87.5448 27.88 87.8613 28.211 88.1741 28.545C87.6432 29.288 87.2599 30.092 87.0507 30.9364C86.5323 30.4245 86.0022 29.922 85.5925 29.3233C84.7408 28.0771 85.2944 26.6471 86.2085 25.4576C86.9083 24.547 87.7644 23.7665 88.6094 22.9912ZM84.4229 29.5285C84.4295 29.0298 84.8245 29.0224 84.8334 29.5491C84.8414 30.0471 84.9435 30.2214 85.4692 30.5355C85.931 30.8121 86.4457 31.074 86.9641 31.3403C86.8248 32.1193 86.8378 32.918 87.0022 33.692C86.3033 33.6545 85.6146 33.4912 84.9978 32.8998C84.2856 32.2186 84.4075 30.551 84.4229 29.5285ZM84.6491 33.3117C84.7731 33.7921 85.9222 34.0731 87.1366 34.215C87.3717 34.9788 87.7333 35.6974 88.2064 36.3409C87.3987 36.6271 86.5837 36.5918 85.7166 36.0467C84.8473 35.4987 84.1358 34.6189 84.116 33.2727C84.1079 32.7681 84.511 32.7762 84.6491 33.3117Z" fill="#D8BD82"/>
<path d="M85.737 36.704C85.4125 36.3553 85.1621 36.4627 85.306 36.8474C85.5505 37.5014 85.9279 38.1186 86.8039 38.7799C87.2459 39.1146 87.9815 39.4052 89.102 39.0065C89.5425 38.8498 89.8861 38.593 90.1982 38.3348C89.5279 37.8368 88.9248 37.254 88.4037 36.601C87.5968 36.9129 86.9066 37.0439 86.2906 37.0328C86.0226 37.0284 85.8846 36.8636 85.737 36.704Z" fill="#D8BD82"/>
<path d="M87.9526 39.5833C87.1875 39.3001 87.4393 39.7267 87.584 39.9319C87.9841 40.5042 88.5627 40.9713 89.6971 41.1663C90.9401 41.3796 92.0238 40.7521 92.9724 39.8996C92.1154 39.5484 91.2985 39.1062 90.5355 38.5806C89.9012 39.0853 89.2272 39.4803 88.4863 39.6855C88.2756 39.7444 88.1471 39.6546 87.9526 39.5833Z" fill="#D8BD82"/>
<path d="M90.9903 41.5362C90.4044 41.378 90.4271 41.648 90.6614 41.8437C91.2179 42.3086 91.8992 42.6182 92.7752 42.7485C94.0527 42.9382 95.0395 42.0585 95.9169 40.7785C95.045 40.61 94.189 40.3676 93.3581 40.0539C92.8222 40.5975 92.2451 41.0882 91.5028 41.4736C91.3633 41.5472 91.1467 41.5781 90.9903 41.5362Z" fill="#D8BD82"/>
<path d="M96.2618 40.8419C95.9292 41.4544 95.5078 42.0142 95.0114 42.5029C94.706 42.8031 94.521 42.82 94.2728 42.831C93.9321 42.8472 93.8616 43.0988 94.17 43.2628C94.7273 43.5615 95.5298 43.6821 96.5503 43.571C97.6671 43.4504 98.3984 42.3867 99.0195 41.0891C98.0951 41.0811 97.1729 40.9985 96.2618 40.8419ZM105.231 22.0898C105.044 21.889 104.636 22.0369 104.959 22.4135L107.041 24.8425C107.356 25.2088 107.44 25.5891 107.411 25.968C108.513 26.6646 109.437 27.498 110.129 28.43C110.551 27.8327 110.683 27.1596 110.439 26.3902C110.148 25.5192 109.376 25.1698 108.534 24.894C107.968 24.7108 107.444 24.4556 106.937 23.9149L105.231 22.0898Z" fill="#D8BD82"/>
<path d="M109.778 22.9912C109.468 22.7072 109.202 22.9529 109.47 23.2788C110.154 24.1056 110.937 24.8493 111.585 25.7041C112.137 26.436 112.057 27.0201 111.213 27.6167C110.84 27.88 110.525 28.211 110.214 28.545C110.746 29.288 111.127 30.092 111.336 30.9364C111.854 30.4245 112.385 29.922 112.794 29.3233C113.647 28.0771 113.092 26.6479 112.178 25.4584C111.479 24.547 110.622 23.7665 109.778 22.9912ZM113.964 29.5285C113.956 29.0298 113.562 29.0224 113.553 29.5491C113.543 30.0471 113.442 30.2214 112.917 30.5355C112.455 30.8121 111.94 31.074 111.423 31.3403C111.562 32.1193 111.549 32.918 111.384 33.692C112.082 33.6545 112.773 33.4912 113.388 32.8998C114.1 32.2186 113.978 30.551 113.964 29.5285ZM113.737 33.3117C113.614 33.7921 112.465 34.0731 111.25 34.215C111.013 34.978 110.652 35.6964 110.18 36.3409C110.989 36.6271 111.804 36.5918 112.671 36.0467C113.541 35.4987 114.25 34.6189 114.271 33.2727C114.279 32.7681 113.876 32.7762 113.737 33.3117Z" fill="#D8BD82"/>
<path d="M112.65 36.704C112.973 36.3553 113.225 36.4627 113.081 36.8474C112.837 37.5014 112.458 38.1186 111.584 38.7799C111.141 39.1146 110.406 39.4052 109.283 39.0065C108.845 38.8498 108.501 38.593 108.188 38.3348C108.859 37.8378 109.462 37.2549 109.982 36.601C110.79 36.9129 111.48 37.0439 112.096 37.0328C112.364 37.0284 112.503 36.8636 112.65 36.704Z" fill="#D8BD82"/>
<path d="M110.433 39.5833C111.197 39.3001 110.946 39.7267 110.803 39.9319C110.401 40.5042 109.822 40.9713 108.689 41.1663C107.447 41.3796 106.361 40.7521 105.415 39.8996C106.272 39.5487 107.088 39.1065 107.851 38.5806C108.484 39.0853 109.159 39.4803 109.899 39.6855C110.11 39.7444 110.239 39.6546 110.433 39.5833Z" fill="#D8BD82"/>
<path d="M107.397 41.5362C107.982 41.378 107.961 41.648 107.725 41.8437C107.168 42.3086 106.488 42.6182 105.612 42.7485C104.333 42.9382 103.347 42.0585 102.469 40.7785C103.341 40.61 104.197 40.3676 105.028 40.0539C105.564 40.5975 106.141 41.0882 106.883 41.4744C107.024 41.5472 107.239 41.5781 107.397 41.5362Z" fill="#D8BD82"/>
<path d="M102.125 40.8419C102.457 41.4543 102.878 42.0141 103.374 42.5029C103.679 42.803 103.864 42.82 104.113 42.831C104.453 42.8472 104.524 43.0988 104.215 43.2628C103.658 43.5614 102.855 43.6821 101.835 43.571C100.719 43.4504 99.9861 42.3867 99.3657 41.0891C100.291 41.0811 101.213 40.9985 102.125 40.8419ZM74.759 29.5224H83.6622C83.3831 30.4193 83.2347 31.3518 83.2216 32.2912H74.759V29.5224ZM114.724 29.5224H150.134V32.2912H115.164C115.151 31.3519 115.003 30.4194 114.724 29.5224ZM74.759 33.4586H83.276C83.3787 34.4157 83.6232 35.3425 83.9911 36.2267H74.759V33.4586ZM115.109 33.4586H150.133V36.2267H114.392C114.764 35.3438 115.006 34.4113 115.109 33.4586ZM74.759 37.3941H84.5638C85.1485 38.4152 85.8759 39.3473 86.7239 40.1622H74.759V37.3941ZM113.822 37.3941H150.133V40.1622H111.662C112.51 39.3475 113.238 38.4154 113.822 37.3941ZM99.1931 27.9364C99.1931 27.9364 99.2599 27.9806 99.2599 28.1152C99.2599 28.2498 99.5272 37.567 99.5272 37.567C99.5272 37.567 104.188 33.9699 104.412 33.7683C104.635 33.5675 104.791 33.6786 104.568 33.8581C104.344 34.0368 99.3943 38.5505 99.3943 38.5505C99.3943 38.5505 100.241 39.3994 101.981 39.3994C103.721 39.3994 104.39 38.7513 104.39 38.7513C104.39 38.7513 103.899 38.4387 103.654 38.1709C103.409 37.9024 102.94 37.1205 104.033 36.5842C105.126 36.048 107.065 35.1542 107.065 35.1542C107.065 35.1542 105.704 34.729 106.241 33.4998C106.776 32.2714 106.841 32.0477 106.841 32.0477C106.841 32.0477 105.971 32.1816 105.415 32.1816C104.858 32.1816 104.298 32.2486 104.456 30.5728C104.456 30.5728 102.694 32.4729 102.36 32.8525C102.025 33.2321 101.668 33.4998 101.311 33.3887C100.955 33.2769 100.844 32.7627 101.044 31.869C101.245 30.976 102.092 27.2435 102.092 27.2435C102.092 27.2435 101.623 27.5561 101.111 27.5561C100.598 27.5561 100.307 27.2884 100.018 26.7072C99.7284 26.1261 99.1924 25.0757 99.1924 25.0757C99.1924 25.0757 98.6571 26.1261 98.3671 26.7072C98.0771 27.2884 97.7871 27.5561 97.2746 27.5561C96.7614 27.5561 96.2937 27.2435 96.2937 27.2435C96.2937 27.2435 97.1402 30.9752 97.3414 31.869C97.5426 32.7627 97.431 33.2769 97.0742 33.3887C96.7173 33.4998 96.3598 33.2321 96.0257 32.8525C95.6916 32.4729 93.9295 30.5728 93.9295 30.5728C94.0859 32.2486 93.5279 32.1816 92.9706 32.1816C92.4126 32.1816 91.5433 32.0477 91.5433 32.0477C91.5433 32.0477 91.6101 32.2714 92.1461 33.4998C92.6813 34.729 91.3201 35.1542 91.3201 35.1542C91.3201 35.1542 93.2606 36.048 94.3531 36.5842C95.4457 37.1205 94.978 37.9024 94.7327 38.1709C94.4875 38.4387 93.9963 38.7513 93.9963 38.7513C93.9963 38.7513 94.6659 39.3994 96.4053 39.3994C98.1454 39.3994 98.9919 38.5505 98.9919 38.5505C98.9919 38.5505 94.0411 34.0368 93.8186 33.8581C93.5954 33.6786 93.7511 33.5668 93.975 33.7683C94.1982 33.9699 98.859 37.567 98.859 37.567C98.859 37.567 99.127 28.2491 99.127 28.1152C99.127 27.9813 99.1931 27.9364 99.1931 27.9364Z" fill="#D8BD82"/>
<path d="M103.456 59.7278C105.237 56.3227 111.226 49.024 118.349 49.024C120.781 49.024 122.884 50.3209 123.045 52.7535C123.21 57.9425 114.143 63.1337 105.723 67.1898C105.239 68.0019 104.591 68.9744 104.267 69.4614C104.104 69.6247 104.104 69.7843 104.104 69.7843C104.104 69.7843 104.429 69.4613 105.239 68.9722C106.049 68.4867 108.314 67.5127 111.712 67.3502C113.168 67.1876 117.701 67.6738 118.028 72.5413C118.028 76.1105 116.085 78.2195 114.305 80.163C113.981 80.327 113.981 80.4881 113.981 80.4881C113.981 80.4881 114.145 80.4881 114.467 80.3241C116.41 79.0257 120.457 75.1336 123.047 73.0254C126.611 69.7828 132.276 66.5388 137.134 66.5388C140.209 66.5388 142.476 67.9982 142.8 70.2683V70.592C143.288 69.9424 143.934 68.8059 144.743 67.1854H151.866C151.543 67.5098 151.38 67.5098 151.217 67.8349C149.274 71.4034 147.17 74.8085 145.066 78.3776C143.609 80.811 145.55 81.7842 146.847 81.7842C147.981 81.7842 150.41 81.1362 153 77.7288C154.943 75.294 158.02 69.6195 158.02 69.6195H154.295C153.973 69.6195 153.809 69.6195 153.485 69.7828C153.485 69.4591 153.807 69.1347 154.133 68.6463C154.455 68.1608 154.618 67.6738 154.943 67.1876H159.476C159.476 67.1876 166.114 56.1579 166.761 54.8596H173.561C173.561 55.0229 173.239 55.5098 173.077 55.8335C170.648 59.5638 168.542 63.2955 166.276 67.0258L165.954 67.3479C165.954 67.3479 166.276 67.1869 166.601 67.1869H174.049C176.478 63.1307 178.906 58.9142 181.335 54.8581H188.295C188.295 54.8581 187.973 55.0207 187.648 55.3451C186.028 58.1036 182.952 63.2948 180.686 67.3472H180.524L181.01 67.1846H185.543C187.485 67.1846 188.942 66.8602 188.942 66.8602C188.133 68.1593 187.485 69.2944 186.677 70.5912C186.028 69.6202 185.381 69.7799 184.573 69.6202H179.391C179.068 70.1043 174.049 78.3769 173.886 79.025C173.563 80.6485 174.696 81.6209 176.153 81.6209C178.583 81.9431 182.143 78.2151 183.925 75.942H186.028C186.677 75.942 187.324 75.6198 187.324 75.6198C185.381 77.5663 183.276 80.16 180.201 82.4316C177.772 84.378 174.696 85.5145 172.107 85.5145C169.032 85.5145 167.253 84.0565 166.926 82.4316C166.764 82.2705 166.764 81.7835 166.764 81.4591C166.764 81.4591 166.601 81.6231 166.278 81.9446C162.878 84.5405 159.642 85.5152 156.887 85.3527C154.622 85.3527 152.357 84.3802 152.032 82.2719C152.032 81.9453 151.87 81.785 152.032 81.4598C151.87 81.6246 151.711 81.6246 151.546 81.785C150.576 82.5963 147.014 85.8389 141.347 85.3534C139.567 85.0297 137.625 84.2169 137.461 81.785V80.9729L137.299 81.1369C135.357 82.92 131.957 85.5145 126.939 85.3512C123.7 85.1916 121.92 82.9185 121.597 81.1369C121.275 79.1897 121.92 77.2419 123.217 75.4573C123.378 75.2947 123.539 75.2947 123.539 75.2947C123.539 75.2947 123.217 75.2947 122.891 75.4573C121.273 76.7549 118.196 79.6723 114.634 81.785C112.206 83.5673 106.378 86 101.684 86C93.589 85.5145 92.4553 81.4584 92.2938 81.2951V81.4591C89.0559 83.8932 85.1696 85.8367 80.9611 85.3512C79.6652 85.1916 78.3708 84.7046 77.7225 83.5666C77.4001 82.756 77.2364 81.6202 77.4001 80.8096C77.2371 80.9736 77.0756 81.1354 76.9141 81.2951C74.8098 83.2415 71.5712 85.3512 68.0102 85.3512C65.5814 85.5152 62.9911 85.0283 61.8574 82.7582C60.886 80.8118 61.6959 78.8661 61.6959 78.8661C61.5336 79.1883 61.2106 79.5156 60.7253 80.0011C59.1063 82.2727 56.0292 85.3512 50.3639 85.5152C46.4784 85.8374 41.1355 83.4077 40.1642 83.0796C39.5166 83.2437 34.9835 85.5152 29.479 85.5152C28.3461 85.5152 20.8982 85.6778 21.0605 80.4866C21.2227 78.3791 22.841 75.9435 28.6692 75.458C32.8785 75.1351 36.9262 76.5931 40.8117 77.7296C42.2684 75.9435 43.5636 73.836 44.6972 71.8903C43.5643 72.3758 41.4593 72.2133 41.4593 72.2133C34.822 72.2133 31.0973 67.9968 31.0973 63.4551C31.4218 57.6159 36.2794 53.2353 43.7251 53.0742C46.3154 53.0742 50.2009 54.3711 50.3639 54.697L50.0394 55.0199C49.5534 54.697 45.8294 54.2093 42.1069 55.9931C39.0305 57.4526 36.1157 60.3707 36.1157 64.101C35.9549 66.5358 37.25 68.6434 39.3536 69.618C41.2963 70.589 43.5629 70.589 45.5056 70.1021C48.0959 65.7245 51.6576 59.5608 53.9242 56.6397C56.8376 52.7469 63.3141 47.071 69.7892 47.8816C69.7892 47.8816 74.1608 48.2053 74.3223 52.2621C74.1608 55.8313 71.5697 58.2632 69.1416 60.5348C63.7921 65.2449 56.9932 68.8103 54.0784 70.1087C53.1077 72.0551 52.2986 73.516 51.488 74.6511C49.0607 77.7332 47.6025 78.7072 46.9564 79.0294C46.6319 79.1927 46.4704 79.1927 46.4704 79.1927C47.4417 79.5193 48.4124 79.8422 49.5453 80.3277C51.3265 80.9787 53.2685 81.4642 54.5637 81.3017C56.9925 81.1398 58.2876 80.0048 59.7443 78.2202C61.0395 77.0837 63.3068 74.3267 65.7348 72.0551C70.4302 67.3502 74.801 66.7043 76.7437 66.541C79.9809 66.541 81.9237 67.8393 82.572 69.785C82.572 69.9483 82.7335 70.2705 82.572 70.4346C83.3818 69.4628 83.8671 68.4889 84.5147 67.1913H91.4759C91.3143 67.3524 91.1521 67.5149 90.9905 67.6782C89.0478 70.9201 87.2673 74.1656 85.3238 77.4096C84.677 78.3813 83.7056 79.8422 84.677 80.9773C85.6476 81.9483 87.2666 81.9483 88.5618 81.3002C91.3143 80.0033 92.7718 77.2448 94.39 74.8136C97.1418 70.272 103.456 59.7278 103.456 59.7278ZM117.541 50.8078C114.466 50.8078 113.333 55.1876 107.181 64.9197C109.931 62.9733 119.159 55.8364 119.159 52.4306C119.159 51.133 118.027 50.8078 117.541 50.8078ZM172.744 69.4614C172.744 69.4614 172.583 69.7843 171.935 69.6247C171.935 69.6247 164.65 69.7872 164.65 69.6247C161.897 74.6518 159.793 77.5729 159.467 78.7079C159.144 79.3567 158.498 81.6283 161.573 81.7886C164.001 81.7886 166.913 78.869 167.562 77.734C169.181 75.625 171.123 72.0544 172.417 70.1094C172.584 69.7843 172.744 69.4614 172.744 69.4614ZM138.749 69.2973C135.998 69.2973 133.567 72.0544 131.949 73.8404C129.519 76.9219 129.035 78.5454 129.035 79.52C129.035 80.8154 130.006 81.7886 131.301 81.7886C133.732 81.9505 135.997 79.6789 137.94 77.0837C139.558 74.9769 141.015 72.5421 140.854 71.5696C140.854 71.0834 140.692 69.4613 138.749 69.2973ZM108.475 70.272C103.132 70.272 98.5985 80.1644 98.7615 81.3017C98.7615 82.5993 99.8944 83.2473 101.352 83.2473C104.59 83.2473 111.066 76.112 110.903 72.5421C110.903 71.0834 109.77 70.272 108.475 70.272ZM70.1064 52.9168C70.9155 51.133 69.7826 49.9972 68.9728 49.8354C66.8685 49.5102 65.4103 51.4574 64.6019 52.7543C61.6878 57.1341 57.3163 65.0815 55.8596 67.0287C55.5365 67.5142 55.3735 67.5142 55.2113 68.0012C55.2113 68.0012 58.9352 65.5656 63.4683 61.0262C64.6019 59.7278 68.8112 55.8372 70.1064 52.9168ZM73.0198 72.7039C70.2679 75.4624 69.1343 77.734 69.1343 79.3545C68.972 80.1652 69.1343 81.6261 71.2386 81.7886C73.019 81.9505 75.6094 80.0055 77.7136 77.247C79.4949 75.138 80.79 72.8679 80.9523 71.4078C80.9523 70.5964 80.3047 69.4613 78.6865 69.3002C77.0668 69.2973 75.124 70.4338 73.0198 72.7039ZM26.3953 78.869C25.7477 78.705 23.3197 78.869 23.3197 80.6536C23.3197 81.1406 23.6435 83.2466 28.1765 83.4121C31.899 83.2466 34.0048 82.436 34.9761 82.2756C35.786 81.9505 36.4336 81.6261 36.7574 81.6261C36.4336 81.462 36.4336 81.6261 35.9483 81.462C34.3766 80.941 32.8114 80.4008 31.2529 79.8415C29.3094 79.1927 27.2052 78.869 26.3953 78.869Z" fill="#00519B"/>
</svg>
